<?xml version="1.0" encoding="UTF-8" standalone="no"?><svg xmlns="http://www.w3.org/2000/svg" xmlns:xlink="http://www.w3.org/1999/xlink" fill="#000000" height="99" preserveAspectRatio="xMidYMid meet" version="1" viewBox="-1.7 -0.8 471.5 99.0" width="471.5" zoomAndPan="magnify"><g id="change1_1"><path d="M457,10.8c5.6,3.8,7.6,11.1,8.4,17.8c1.9,15.7,0,31.5-1.9,47.1c-0.5,4-1,8.2-3.4,11.4 c-3.8,5.4-11.2,6.7-17.9,7.4c-26.9,2.5-54,0.5-81,0.2c-70.1-0.9-140.3-2.3-210.5-1.6c-41.1,0.4-82.2-0.4-123.3-0.9 c-5.9-0.1-12.2-0.3-16.7-4.1c-4-3.3-5.6-8.7-6.6-13.7C0.8,56.7,2.5,37.8,9.2,20.9c2.5-6.4,6.1-13,12.3-16.1c5.8-3,12.7-2.4,19.2-1.8 c31,2.7,61.8,1.6,92.8,2c33,0.5,66.1,0.8,99.1,0.8c70.4,0.1,140.8-3.3,211,1.7c4.4,0.3,9,0.7,12.8,3C456.6,10.6,456.8,10.7,457,10.8 z" fill="#f0b0bb"/></g><g id="change2_1"><path d="M411.9,98.2c-9.6,0-19.1-0.3-28.5-0.5c-7.3-0.2-14.8-0.4-22.2-0.5c-13.5-0.2-26.9-0.4-40.4-0.6 c-55.7-0.8-113.3-1.6-170-1C117.8,95.9,84.4,95.5,52,95c-8.2-0.1-16.4-0.2-24.7-0.3c-5.8-0.1-13-0.2-18.3-4.7 c-4.7-3.9-6.4-10.1-7.4-15.1C-1.7,56.6,0.1,37.1,6.9,20c2.2-5.7,6-13.7,13.5-17.4c6.5-3.4,14-2.7,20.5-2.1 c22.1,1.9,44.6,1.9,66.3,1.9c8.6,0,17.5,0,26.3,0.1c35.5,0.5,67.9,0.8,99.1,0.8c20.7,0,41.7-0.2,62.1-0.5 c48.9-0.6,99.4-1.3,149.1,2.2c4,0.3,9.4,0.6,13.8,3.3l0.8,0.4c5.2,3.5,8.3,10,9.5,19.6c1.9,16.1,0,32.2-1.9,47.7l0,0.2 c-0.5,4.1-1.1,8.8-3.9,12.4c-4.2,6-11.9,7.6-19.6,8.4C432.3,97.9,422.1,98.2,411.9,98.2z M190.3,90.4c43.8,0,87.8,0.6,130.6,1.2 c13.5,0.2,26.9,0.4,40.4,0.6c7.4,0.1,15,0.3,22.3,0.5c19.2,0.5,39.1,1.1,58.5-0.7c6.5-0.7,13-1.9,16.1-6.3c2-2.7,2.5-6.5,2.9-10.1 l0-0.1c1.9-15.2,3.8-31,1.9-46.5c-1-8-3.3-13.2-7.2-15.9l-0.6-0.3c-3.2-1.9-7.2-2.3-11.7-2.6C394,6.5,343.6,7.1,294.8,7.8 c-20.4,0.3-41.5,0.5-62.2,0.5c-31.2,0-63.6-0.3-99.1-0.8c-8.8-0.1-17.6-0.1-26.2-0.1c-21.8,0-44.4,0-66.7-1.9 C34.3,4.9,27.9,4.3,22.7,7c-4.5,2.3-8.1,7-11.1,14.8c-6.4,16.3-8.2,34.8-5,52.1c0.9,4.4,2.3,9.4,5.7,12.2c4,3.3,9.9,3.4,15.2,3.5 c8.2,0.1,16.4,0.2,24.7,0.3c32.3,0.4,65.7,0.9,98.6,0.6C163.8,90.5,177,90.4,190.3,90.4z" fill="#fd87be"/></g></svg>